Coordinates
version=1
nRows=14
nColumns=40
inDegrees=yes

Units are S.I. units (second, meters, Newtons, ...)
Angles are in degrees.

endheader
time	pelvis_tilt	pelvis_list	pelvis_rotation	pelvis_tx	pelvis_ty	pelvis_tz	hip_flexion_r	hip_adduction_r	hip_rotation_r	knee_angle_r	knee_angle_r_beta	ankle_angle_r	subtalar_angle_r	mtp_angle_r	hip_flexion_l	hip_adduction_l	hip_rotation_l	knee_angle_l	knee_angle_l_beta	ankle_angle_l	subtalar_angle_l	mtp_angle_l	lumbar_extension	lumbar_bending	lumbar_rotation	arm_flex_r	arm_add_r	arm_rot_r	elbow_flex_r	pro_sup_r	wrist_flex_r	wrist_dev_r	arm_flex_l	arm_add_l	arm_rot_l	elbow_flex_l	pro_sup_l	wrist_flex_l	wrist_dev_l
      0.84000000	      2.95822214	     -0.67807389	      0.02114240	     -0.08038408	      0.89147241	      0.94831010	     23.87221917	     -0.47336511	    -13.70228128	    -24.75875326	     -0.43212176	      1.02482540	     -6.09886519	      8.25174928	    -11.67481468	     -1.38510576	      7.85127587	    -13.16252846	     -0.22972946	     10.74610058	     -9.25625852	     -4.97663788	     -8.06476028	      3.66277522	     -5.15492074	      3.44864706	     -8.26868799	     11.57221246	     13.44890205	     89.95437384	      0.00000000	      0.00000000	     13.08668134	     12.96173617	    -22.97544210	     24.35993317	     89.95437384	      0.00000000	      0.00000000
      0.85000000	      3.17126891	     -0.92656582	      0.65481156	     -0.06807151	      0.88959330	      0.94784992	     23.83915380	     -0.67308364	    -15.93609881	    -21.94734645	     -0.38305346	      0.69309987	     -2.61418494	      5.61418256	    -12.70423631	     -0.89825257	      8.05305513	    -13.30787938	     -0.23226631	     10.84846448	     -9.95786273	     -5.99850785	     -8.38603139	      4.05248015	     -5.53412303	      2.51551325	     -8.14935657	     11.60866637	     12.58287746	     89.95437384	      0.00000000	      0.00000000	     14.18342177	     13.07529451	    -22.57459593	     25.46694898	     89.95437384	      0.00000000	      0.00000000
      0.86000000	      3.08321741	     -0.98004278	      1.19420158	     -0.05595751	      0.88717502	      0.94743634	     24.19921252	     -0.92584866	    -17.57411370	    -19.32429397	     -0.33727256	     -0.71455058	     -0.56759809	     -3.20308567	    -13.45701426	     -0.68915327	      7.92438609	    -13.31628437	     -0.23241301	     10.82722714	    -10.05480053	     -7.99765550	     -8.37388667	      4.22081284	     -5.84471359	      1.62967905	     -7.97156460	     11.64146071	     11.59995845	     89.95437384	      0.00000000	      0.00000000	     15.29702804	     13.11222063	    -22.17067975	     26.36573032	     89.95437384	      0.00000000	      0.00000000
      0.87000000	      2.88320707	     -1.07795097	      1.64607223	     -0.04408392	      0.88454990	      0.94735294	     24.76494257	     -1.07692963	    -19.23288065	    -17.26105742	     -0.30126228	     -1.06405818	      2.13468339	     -3.73982417	    -13.92921354	     -0.37960511	      7.90474480	    -13.63249541	     -0.23793193	     11.17371822	    -10.48307746	     -8.15615589	     -8.28567237	      4.40712513	     -6.02857398	      0.74935771	     -7.78865095	     11.80549521	     10.68437104	     89.95437384	      0.00000000	      0.00000000	     16.37576478	     13.17782571	    -21.92140141	     27.32221108	     89.95437384	      0.00000000	      0.00000000
      0.88000000	      2.50406830	     -0.92480525	      1.74219772	     -0.03219295	      0.88158617	      0.94780658	     25.79469249	     -1.23236056	    -19.75644738	    -16.05953610	     -0.28029178	     -0.92270509	      2.63358741	     -3.80383727	    -14.34026352	     -0.45447777	      7.82764495	    -13.72228829	     -0.23949911	     11.34612339	    -10.65282296	     -8.20060267	     -8.03971310	      4.26136642	     -5.78737728	     -0.19131895	     -7.54542211	     11.97705782	      9.80965251	     89.95437384	      0.00000000	      0.00000000	     17.48263441	     13.16071045	    -21.71989767	     28.14277384	     89.95437384	      0.00000000	      0.00000000
      0.89000000	      2.46767951	     -1.28219184	      2.53838389	     -0.01976530	      0.87922817	      0.94756226	     26.16449426	     -1.55761279	    -22.83894963	    -15.14144583	     -0.26426808	     -1.26216423	      8.15989709	     -5.50838263	    -14.77133492	      0.38717101	      7.85035454	    -14.42502107	     -0.25176411	     11.27856485	    -12.00976955	     -8.73105774	     -8.06120876	      4.75406745	     -6.32392061	     -0.95048826	     -7.29926730	     11.89056147	      8.91627255	     89.95437384	      0.00000000	      0.00000000	     18.28497064	     13.19045900	    -21.02434491	     29.34373139	     89.95437384	      0.00000000	      0.00000000
      0.90000000	      2.22583673	     -1.21510161	      2.67555990	     -0.00739376	      0.87662326	      0.94795832	     26.96795410	     -1.65558279	    -22.91443859	    -14.96810671	     -0.26124274	     -1.14995942	      8.12308632	     -5.51300482	    -15.20531879	      0.46526584	      7.60148049	    -14.80973248	     -0.25847859	     11.21907861	    -11.93642835	     -8.69219555	     -7.94241615	      4.72404067	     -5.99878725	     -1.95396202	     -7.08569677	     12.05803952	      8.26523753	     89.95437384	      0.00000000	      0.00000000	     19.25894829	     13.06270369	    -20.78953662	     30.27137593	     89.95437384	      0.00000000	      0.00000000
      0.91000000	      2.14363486	     -1.41004363	      3.17456801	      0.00550246	      0.87437617	      0.94811003	     27.48982598	     -1.65099964	    -23.08255700	    -15.39451675	     -0.26868500	     -0.96503202	      8.11161980	     -5.70252473	    -15.70825546	      0.97399777	      7.05605609	    -15.32304418	     -0.26743757	     11.33215861	    -12.26730577	     -8.83040189	     -7.88177163	      5.00034467	     -6.28026618	     -2.66331829	     -6.79765546	     12.68962397	      7.28456320	     89.95437384	      0.00000000	      0.00000000	     19.81438329	     13.16091675	    -20.34144430	     31.60895731	     89.95437384	      0.00000000	      0.00000000
      0.92000000	      2.03374252	     -1.51770870	      3.47779726	      0.01882140	      0.87223192	      0.94814243	     28.03589699	     -1.65548276	    -22.58210587	    -16.32805980	     -0.28497840	     -1.11680629	      7.60949532	     -5.61092481	    -16.15536998	      1.29601629	      6.50294914	    -15.97635830	     -0.27884005	     10.99499422	    -12.06457301	     -8.71243769	     -7.78280316	      5.20982719	     -6.10686643	     -3.69139983	     -6.66893704	     12.87002376	      6.91212990	     89.95437384	      0.00000000	      0.00000000	     20.45146553	     12.94708856	    -19.90895099	     32.68472932	     89.95437384	      0.00000000	      0.00000000
      0.93000000	      2.13609700	     -1.72925144	      3.83083973	      0.03268493	      0.87051859	      0.94826755	     28.44563015	     -1.58953396	    -22.16450855	    -18.04994690	     -0.31503100	     -1.31769604	      6.30613020	     -5.43900293	    -16.86937034	      1.75694015	      5.77730938	    -16.58515170	     -0.28946550	     10.69731077	    -12.03391599	     -8.64533139	     -7.83018738	      5.52929168	     -6.22596810	     -4.46905884	     -6.45914882	     13.32049022	      6.22328415	     89.95437384	      0.00000000	      0.00000000	     20.73313667	     12.88435383	    -19.19318195	     33.99890900	     89.95437384	      0.00000000	      0.00000000
      0.94000000	      2.09596152	     -2.03034937	      4.04916325	      0.04680589	      0.86885765	      0.94891703	     28.65888138	     -0.80542648	    -20.04075454	    -19.19625375	     -0.33503783	     -1.73097250	      0.22910787	     -4.14946151	    -17.33654347	      2.41972310	      5.91371047	    -17.31743239	     -0.30224621	      9.80854087	    -12.72138468	     -9.56191579	     -7.71122355	      5.90198089	     -6.42540195	     -5.34957094	     -6.53606722	     16.72671492	      6.01067383	     89.95437384	      0.00000000	      0.00000000	     20.47534971	     12.78585023	    -17.32379295	     35.77455853	     89.95437384	      0.00000000	      0.00000000
      0.95000000	      2.19032547	     -2.19646117	      4.17172504	      0.06150243	      0.86747316	      0.94943786	     28.75964927	     -0.56598256	    -19.48210738	    -20.99407213	     -0.36641568	     -1.81661996	     -0.88278062	     -3.82832498	    -17.97823615	      2.78411739	      5.56200313	    -18.10207591	     -0.31594083	      9.21963944	    -12.37719060	     -9.45177871	     -7.67854817	      6.14456011	     -6.40434795	     -6.13939034	     -6.37304700	     17.04326009	      5.59842959	     89.95437384	      0.00000000	      0.00000000	     20.28684025	     12.78367883	    -16.46624214	     37.40959039	     89.95437384	      0.00000000	      0.00000000
      0.96000000	      2.10042131	     -2.59940642	      4.14957789	      0.07632012	      0.86609809	      0.95053934	     28.71360107	      0.41994683	    -17.83277533	    -22.04517707	     -0.38476092	     -2.97399473	     -4.42086803	     -2.12077783	    -18.18599089	      3.48380611	      5.88750046	    -19.33051095	     -0.33738106	      7.94961128	    -12.56826768	     -9.88186770	     -7.43499083	      6.61058645	     -6.29569588	     -7.02623851	     -6.39880256	     18.66716527	      5.54124286	     89.95437384	      0.00000000	      0.00000000	     19.81990893	     12.57882011	    -14.82451368	     39.10693859	     89.95437384	      0.00000000	      0.00000000
      0.97000000	      2.02993114	     -2.67801353	      4.13363773	      0.09111136	      0.86503451	      0.95129722	     28.91443039	      0.49292886	    -17.81771440	    -23.47187673	     -0.40966153	     -6.24351643	     -4.58988044	     -1.37897285	    -18.33618173	      3.71027161	      5.68572867	    -20.64063214	     -0.36024699	      6.77457724	    -11.88341114	     -9.59843452	     -7.27009861	      6.73833906	     -6.17093801	     -7.77384751	     -6.28330042	     18.88037829	      5.39806494	     89.95437384	      0.00000000	      0.00000000	     19.30933023	     12.64506571	    -14.08004650	     40.98602037	     89.95437384	      0.00000000	      0.00000000
